<svg width="274" height="274" viewBox="0 0 274 274" fill="none" xmlns="http://www.w3.org/2000/svg">
<circle cx="137" cy="137" r="137" fill="#0D0D0D"/>
<path d="M70.4648 118.01H76.5293V158H70.9336V153.518C69.5078 156.857 67.0566 158.527 63.5801 158.527C60.2402 158.527 57.7305 157.131 56.0508 154.338C54.3906 151.545 53.5605 147.883 53.5605 143.352C53.5605 138.488 54.4785 134.699 56.3145 131.984C58.1699 129.27 60.6309 127.912 63.6973 127.912C66.9199 127.912 69.1758 129.221 70.4648 131.838V118.01ZM70.4648 140.598C70.4648 137.551 69.8887 135.422 68.7363 134.211C67.584 132.98 66.3926 132.365 65.1621 132.365C61.7637 132.365 60.0645 135.842 60.0645 142.795C60.0645 150.217 61.7832 153.928 65.2207 153.928C66.5488 153.928 67.75 153.312 68.8242 152.082C69.918 150.852 70.4648 148.713 70.4648 145.666V140.598ZM105.211 144.113H88.4824C88.4824 148.117 89.0195 150.793 90.0938 152.141C91.1875 153.469 92.5547 154.133 94.1953 154.133C96.9297 154.133 98.6582 152.287 99.3809 148.596L104.947 149.328C103.482 155.598 99.8301 158.732 93.9902 158.732C90.416 158.732 87.5645 157.453 85.4355 154.895C83.3066 152.336 82.2422 148.586 82.2422 143.645C82.2422 138.566 83.3164 134.641 85.4648 131.867C87.6133 129.094 90.4844 127.707 94.0781 127.707C96.5977 127.707 98.7168 128.4 100.436 129.787C102.154 131.174 103.365 133 104.068 135.266C104.771 137.512 105.152 140.461 105.211 144.113ZM98.9707 139.982C98.9707 134.768 97.2715 132.16 93.873 132.16C90.6895 132.16 88.9414 134.768 88.6289 139.982H98.9707ZM111.744 120.705L117.252 120.178V128.41H122.906V133.332H117.252V146.398C117.252 148.703 117.311 150.236 117.428 150.998C117.545 151.74 117.896 152.355 118.482 152.844C119.068 153.312 120.045 153.547 121.412 153.547C122.135 153.547 122.955 153.479 123.873 153.342V158.205C122.232 158.557 120.709 158.732 119.303 158.732C117.018 158.732 115.27 158.293 114.059 157.414C112.848 156.516 112.076 155.305 111.744 153.781C111.412 152.258 111.246 149.934 111.246 146.809V133.332H107.408V128.41H111.422L111.744 120.705ZM145.934 118.01H153.346L164.068 158H157.359L154.84 147.98H143.15L140.689 158H134.361L145.934 118.01ZM153.521 142.766L148.98 124.455L144.469 142.766H153.521ZM167.818 128.41H173.443V133.273C174.986 129.699 177.428 127.912 180.768 127.912C183.756 127.912 186.168 129.221 188.004 131.838C189.84 134.436 190.758 138.146 190.758 142.971C190.758 147.287 189.918 150.959 188.238 153.986C186.578 157.014 183.99 158.527 180.475 158.527C177.662 158.527 175.465 157.326 173.883 154.924V168.02H167.818V128.41ZM173.883 145.637C173.883 147.531 174.02 149.016 174.293 150.09C174.586 151.145 175.172 152.053 176.051 152.814C176.93 153.557 177.926 153.928 179.039 153.928C182.516 153.928 184.254 150.275 184.254 142.971C184.254 135.9 182.555 132.365 179.156 132.365C177.652 132.365 176.393 133.088 175.377 134.533C174.381 135.979 173.883 138.039 173.883 140.715V145.637ZM196.471 128.41H202.096V133.273C203.639 129.699 206.08 127.912 209.42 127.912C212.408 127.912 214.82 129.221 216.656 131.838C218.492 134.436 219.41 138.146 219.41 142.971C219.41 147.287 218.57 150.959 216.891 153.986C215.23 157.014 212.643 158.527 209.127 158.527C206.314 158.527 204.117 157.326 202.535 154.924V168.02H196.471V128.41ZM202.535 145.637C202.535 147.531 202.672 149.016 202.945 150.09C203.238 151.145 203.824 152.053 204.703 152.814C205.582 153.557 206.578 153.928 207.691 153.928C211.168 153.928 212.906 150.275 212.906 142.971C212.906 135.9 211.207 132.365 207.809 132.365C206.305 132.365 205.045 133.088 204.029 134.533C203.033 135.979 202.535 138.039 202.535 140.715V145.637Z" fill="white"/>
</svg>
